<?xml version="1.0" encoding="UTF-8"?>
<svg width="36px" height="36px" viewBox="0 0 36 36" version="1.1" xmlns="http://www.w3.org/2000/svg" xmlns:xlink="http://www.w3.org/1999/xlink" style="background: #FF0000;">
    <title>ICONS/MY_LEASE/social_facebook_white</title>
    <g id="Symbols" stroke="none" stroke-width="1" fill="none" fill-rule="evenodd">
        <g id="ICONS/MY_LEASE/social_facebook_white">
            <rect fill="#007bad" x="0" y="0" width="36" height="36"></rect>
            <path d="M18.0020571,0 C27.9401143,0 36,8.05885714 36,18 C36,27.9401143 27.9401143,36 18.0020571,36 C8.05885714,36 2.84217094e-14,27.9401143 2.84217094e-14,18 C2.84217094e-14,8.05885714 8.05885714,0 18.0020571,0 Z M19.166752,7.2 C15.3875656,7.2 14.716561,9.82961253 14.716561,11.511154 L14.716561,13.8606776 L12.3428571,13.8606776 L12.3428571,17.4857143 L14.716561,17.4857143 L14.716561,27.7714286 L18.9541665,27.7714286 L18.9541665,17.4857143 L22.2255657,17.4857143 L22.6285714,13.8606776 L18.9541665,13.8606776 L18.9541665,11.6088829 C18.9541665,10.807909 19.2876538,10.737383 19.689652,10.737383 L22.5711431,10.737383 L22.5711431,7.21309769 L19.166752,7.2 Z" id="Combined-Shape" fill="#FFFFFF"></path>
        </g>
    </g>
</svg>