<?xml version="1.0" encoding="UTF-8"?>
<svg width="36px" height="36px" viewBox="0 0 36 36" version="1.1" xmlns="http://www.w3.org/2000/svg" xmlns:xlink="http://www.w3.org/1999/xlink" style="background: #FF0000;">
    <title>ICONS/MY_LEASE/social_instagram_white</title>
    <g id="Symbols" stroke="none" stroke-width="1" fill="none" fill-rule="evenodd">
        <g id="ICONS/MY_LEASE/social_instagram_white">
            <rect fill="#007bad" x="0" y="0" width="36" height="36"></rect>
            <path d="M18,-2.84217094e-14 C27.9411255,-2.84217094e-14 36,8.0588745 36,18 C36,27.9411255 27.9411255,36 18,36 C8.0588745,36 0,27.9411255 0,18 C0,8.0588745 8.0588745,-2.84217094e-14 18,-2.84217094e-14 Z M18,7.2 L17.6954677,7.2000485 L17.6954677,7.2000485 L16.8904653,7.20083665 C15.5133761,7.20332187 14.9052122,7.21181939 14.3166696,7.23254464 L14.1085433,7.24037729 C13.9337501,7.24734446 13.7530286,7.25543265 13.5473143,7.2648 C12.3984,7.31725714 11.6125714,7.50034286 10.9254857,7.76674286 C10.2157714,8.0424 9.61405714,8.41165714 9.01337143,9.01234286 C8.41268571,9.612 8.0424,10.2147429 7.76777143,10.9254857 C7.50034286,11.6125714 7.31725714,12.3973714 7.26582857,13.5462857 C7.25833469,13.7110041 7.25163848,13.8596851 7.24566497,14.0021018 L7.23723736,14.2122501 L7.23723736,14.2122501 L7.22983757,14.4203315 C7.21142524,14.9789748 7.20337659,15.5937546 7.20089363,16.8901384 L7.20005234,17.6953652 C7.20001706,17.7937386 7.2,17.8952327 7.2,18 L7.20005234,18.3045323 L7.20005234,18.3045323 L7.20089363,19.1095347 C7.20337659,20.4056187 7.21142524,21.0205784 7.22983757,21.5791137 L7.24131917,21.8914567 C7.24834023,22.0662499 7.25646122,22.2469714 7.26582857,22.4526857 C7.31725714,23.6026286 7.50034286,24.3864 7.76777143,25.0734857 C8.0424,25.7842286 8.41268571,26.3869714 9.01337143,26.9866286 C9.61405714,27.5873143 10.2157714,27.9565714 10.9254857,28.2332571 C11.6125714,28.4996571 12.3984,28.6817143 13.5473143,28.7341714 C13.7530286,28.7437224 13.9337501,28.7519615 14.1085433,28.7590526 L14.3166696,28.7670214 C14.9052122,28.788098 15.5133761,28.7966624 16.8904653,28.7991603 L17.6954677,28.7999515 C17.7938095,28.7999843 17.8952694,28.8 18,28.8 L18.3046347,28.7999515 L18.3046347,28.7999515 L19.1098586,28.7991603 C20.4872536,28.7966624 21.0951276,28.788098 21.683475,28.7670214 L21.8915375,28.7590526 C22.0662827,28.7519615 22.2469714,28.7437224 22.4526857,28.7341714 C23.6026286,28.6817143 24.3874286,28.4996571 25.0745143,28.2332571 C25.7842286,27.9565714 26.3869714,27.5873143 26.9876571,26.9866286 C27.5873143,26.3869714 27.9576,25.7842286 28.2332571,25.0734857 C28.4996571,24.3864 28.6827429,23.6026286 28.7352,22.4526857 C28.7445673,22.2469714 28.7526555,22.0662499 28.7596227,21.8914567 L28.7674554,21.6833304 C28.7881806,21.0947878 28.7966781,20.4866239 28.7991633,19.1095347 L28.7991633,16.8901384 C28.7965319,15.4317066 28.7871601,14.8359299 28.7636698,14.2122501 L28.7553066,14.0021018 C28.7493691,13.8596851 28.7426939,13.7110041 28.7352,13.5462857 C28.6827429,12.3973714 28.4996571,11.6125714 28.2332571,10.9254857 C27.9576,10.2147429 27.5873143,9.612 26.9876571,9.01234286 C26.3869714,8.41165714 25.7842286,8.0424 25.0745143,7.76674286 C24.3874286,7.50034286 23.6026286,7.31725714 22.4526857,7.2648 C22.2469714,7.25543265 22.0662827,7.24734446 21.8915375,7.24037729 L21.683475,7.23254464 C21.0951276,7.21181939 20.4872536,7.20332187 19.1098586,7.20083665 L18.3046347,7.2000485 C18.2062614,7.20001574 18.1047673,7.2 18,7.2 Z M21.6075375,9.17670536 L21.8114888,9.18446397 C21.9829946,9.19137726 22.160902,9.19943265 22.3642286,9.2088 C23.4174857,9.25714286 23.9893714,9.432 24.3689143,9.58011429 C24.8739429,9.77554286 25.2329143,10.0100571 25.6114286,10.3875429 C25.9899429,10.7660571 26.2234286,11.1260571 26.4198857,11.6300571 C26.5669714,12.0106286 26.7428571,12.5825143 26.7912,13.6347429 C26.7986939,13.797551 26.8053481,13.94407 26.8112496,14.0840397 L26.8195483,14.2902997 C26.842816,14.901649 26.8517223,15.4789924 26.8541918,16.9098822 L26.8541918,19.0897369 C26.8517223,20.5201409 26.842816,21.0973629 26.8195483,21.7086818 L26.8112496,21.9149348 C26.8053481,22.0549015 26.7986939,22.2014204 26.7912,22.3642286 C26.7428571,23.4164571 26.5669714,23.9893714 26.4198857,24.3689143 C26.2234286,24.8729143 25.9899429,25.2329143 25.6114286,25.6104 C25.2329143,25.9889143 24.8739429,26.2234286 24.3689143,26.4188571 C23.9893714,26.5669714 23.4174857,26.7428571 22.3642286,26.7901714 C22.160902,26.7995388 21.9829946,26.8075942 21.8114888,26.8145075 L21.6075375,26.8222661 C21.0314847,26.8427571 20.441498,26.8508309 19.0901148,26.8531632 L16.9098882,26.8531632 C15.0020711,26.8498706 14.6118857,26.8351347 13.6368,26.7901714 C12.5835429,26.7428571 12.0116571,26.5669714 11.6310857,26.4188571 C11.1260571,26.2234286 10.7670857,25.9889143 10.3896,25.6104 C10.0110857,25.2329143 9.77657143,24.8729143 9.58114286,24.3689143 C9.43302857,23.9893714 9.25714286,23.4164571 9.2088,22.3642286 C9.20130612,22.2014204 9.19467289,22.0549015 9.18880733,21.9149348 L9.18057314,21.7086818 C9.15752811,21.0973629 9.14908738,20.5201409 9.14677984,19.0897369 L9.14677984,16.9098822 C9.14908738,15.4789924 9.15752811,14.901649 9.18057314,14.2902997 L9.18880733,14.0840397 C9.19467289,13.94407 9.20130612,13.797551 9.2088,13.6347429 C9.25714286,12.5825143 9.43302857,12.0106286 9.58114286,11.6300571 C9.77657143,11.1260571 10.0110857,10.7660571 10.3896,10.3875429 C10.7670857,10.0100571 11.1260571,9.77554286 11.6310857,9.58011429 C12.0116571,9.432 12.5835429,9.25714286 13.6368,9.2088 C14.6118857,9.16383673 15.0020711,9.14910087 16.9098882,9.14580825 L19.0901148,9.14580825 C20.441498,9.14814052 21.0314847,9.15621429 21.6075375,9.17670536 Z M18,12.4539429 C14.9379429,12.4539429 12.4549714,14.9369143 12.4549714,18 C12.4549714,21.0620571 14.9379429,23.5450286 18,23.5450286 C21.0641143,23.5450286 23.5460571,21.0620571 23.5460571,18 C23.5460571,14.9369143 21.0641143,12.4539429 18,12.4539429 Z M18,14.4 C19.9892571,14.4 21.6,16.0117714 21.6,18 C21.6,19.9882286 19.9892571,21.6 18,21.6 C16.0117714,21.6 14.4,19.9882286 14.4,18 C14.4,16.0117714 16.0117714,14.4 18,14.4 Z M23.7661714,10.9378286 C23.0492571,10.9378286 22.4691429,11.5189714 22.4691429,12.2338286 C22.4691429,12.9497143 23.0492571,13.5308571 23.7661714,13.5308571 C24.4810286,13.5308571 25.0611429,12.9497143 25.0611429,12.2338286 C25.0611429,11.5189714 24.4810286,10.9378286 23.7661714,10.9378286 Z" id="Combined-Shape" fill="#FFFFFF"></path>
        </g>
    </g>
</svg>