<?xml version="1.0" encoding="UTF-8"?>
<svg width="36px" height="36px" viewBox="0 0 36 36" version="1.1" xmlns="http://www.w3.org/2000/svg" xmlns:xlink="http://www.w3.org/1999/xlink" style="background: #FF0000;">
    <title>ICONS/MY_LEASE/social_twitter_white</title>
    <g id="Symbols" stroke="none" stroke-width="1" fill="none" fill-rule="evenodd">
        <g id="ICONS/MY_LEASE/social_twitter_white">
            <rect fill="#007bad" x="0" y="0" width="36" height="36"></rect>
            <path d="M18.0010286,0 C27.9411429,0 36,8.05782857 36,18 C36,27.9401143 27.9411429,36 18.0010286,36 C8.05885714,36 2.84217094e-14,27.9401143 2.84217094e-14,18 C2.84217094e-14,8.05782857 8.05885714,0 18.0010286,0 Z M22.7674286,9.25714286 C20.3904,9.25714286 18.4618286,11.2906286 18.4618286,13.8013714 C18.4618286,14.1572571 18.4988571,14.5028571 18.5729143,14.8371429 C14.9904,14.6468571 11.8172571,12.8376 9.6912,10.0872 C9.32091429,10.7588571 9.11005714,11.5405714 9.11005714,12.3737143 C9.11005714,13.9484571 9.87017143,15.3401143 11.0252571,16.1547429 C10.3206857,16.1300571 9.6552,15.9264 9.07405714,15.5869714 L9.07405714,15.6445714 C9.07405714,17.8446857 10.5582857,19.6806857 12.5300571,20.1003429 C12.1690286,20.2032 11.7874286,20.2597714 11.3955429,20.2597714 C11.1178286,20.2597714 10.8473143,20.232 10.5850286,20.1774857 C11.1332571,21.9836571 12.7234286,23.2961143 14.6088,23.3341714 C13.1328,24.5530286 11.2772571,25.2792 9.25714286,25.2792 C8.90845714,25.2792 8.56697143,25.2565714 8.22857143,25.2154286 C10.1365714,26.5042286 12.4025143,27.2571429 14.8340571,27.2571429 C22.7571429,27.2571429 27.0905143,20.3328 27.0905143,14.3269714 C27.0905143,14.1305143 27.0874286,13.9340571 27.0812571,13.7386286 C27.9216,13.0978286 28.6529143,12.2986286 29.2299429,11.3873143 C28.4574857,11.7493714 27.6274286,11.9931429 26.7562286,12.1021714 C27.6438857,11.5405714 28.3278857,10.6498286 28.6498286,9.58731429 C27.8177143,10.1098286 26.8950857,10.4873143 25.9138286,10.692 C25.1290286,9.80742857 24.0078857,9.25714286 22.7674286,9.25714286 Z" id="Combined-Shape" fill="#FFFFFF"></path>
        </g>
    </g>
</svg>