<?xml version="1.0" encoding="UTF-8"?>
<svg width="38px" height="21px" viewBox="0 0 38 21" version="1.1" xmlns="http://www.w3.org/2000/svg" xmlns:xlink="http://www.w3.org/1999/xlink">
    <title>BUTTONS/NAVBAR/my_lease_white</title>
    <g id="BUTTONS/NAVBAR/my_lease_white" stroke="none" stroke-width="1" fill="none" fill-rule="evenodd">
        <path d="M33,15 C33,16.657 31.657,18 30,18 C28.343,18 27,16.657 27,15 C27,13.343 28.343,12 30,12 C31.657,12 33,13.343 33,15" id="wheel_2" fill="#FFFFFF"></path>
        <path d="M11,15 C11,16.657 9.657,18 8,18 C6.343,18 5,16.657 5,15 C5,13.343 6.343,12 8,12 C9.657,12 11,13.343 11,15" id="wheel_1" fill="#FFFFFF"></path>
        <path d="M30,7 C34.418,7 38,10.582 38,15 L35,15 C35,12.238 32.761,10 30,10 C27.239,10 25,12.238 25,15 L13,15 C13,12.238 10.761,10 8,10 C5.239,10 3,12.238 3,15 L0,15 C0,10.582 3.582,7 8,7 L13,7 C13,4.238 15.239,2 18,2 L25,2 C27.761,2 30,4.238 30,7" id="car" fill="#FFFFFF"></path>
    </g>
</svg>