<?xml version="1.0" encoding="UTF-8"?>
<svg width="24px" height="21px" viewBox="0 0 24 21" version="1.1" xmlns="http://www.w3.org/2000/svg" xmlns:xlink="http://www.w3.org/1999/xlink">
    <title>BUTTONS/NAVBAR/my_showroom_dk_blue</title>
    <g id="BUTTONS/NAVBAR/my_showroom_dk_blue" stroke="none" stroke-width="1" fill="none" fill-rule="evenodd">
        <path d="M8.53,6.86350816 C7.668,4.53210935 6.23,3.43377448 4.857,3.42889299 C3.963,3.42889299 3,4.17868959 3,5.82375115 C3,8.73702338 5.276,11.2627054 9.5,14.7100125 C13.723,11.2627054 16,8.73702338 16,5.82375115 C16,4.17868959 15.037,3.42889299 14.142,3.42889299 C12.769,3.43377448 11.332,4.53210935 10.469,6.86350816 L8.53,6.86350816 Z M9.5,3.17603189 C10.738,1.26834626 12.207,0.5 14.142,0.5 C16.497,0.5 19,2.36668113 19,5.82375115 C19,10.7745566 14.703,14.4532462 9.5,18.5 C4.297,14.4532462 0,10.7745566 0,5.82375115 C0,2.36668113 2.502,0.5 4.857,0.5 C6.792,0.5 8.261,1.26834626 9.5,3.17603189 L9.5,3.17603189 Z" id="Fill-1" fill="#FFFFFF"></path>
    </g>
</svg>